<svg xmlns="http://www.w3.org/2000/svg" viewBox="0 0 500 500"><g id="freepik--Floor--inject-18"><path id="freepik--Floor-2--inject-18" d="M87.846,258.624c-89.552,51.703-89.55,135.531,.005,187.234,89.555,51.703,234.75,51.703,324.303,0,89.552-51.703,89.55-135.531-.005-187.234-89.555-51.703-234.75-51.703-324.303,0Z" style="fill:#fafafa;"></path></g><g id="freepik--Shelf--inject-18"><g id="freepik--Shelf-2--inject-18"><g><polygon points="128.595 90.654 100.366 74.354 26.021 117.23 26.022 120.328 54.251 136.628 128.595 93.752 128.595 90.654" style="fill:#ebebeb;"></polygon><polygon points="54.251 133.53 128.595 90.654 100.366 74.354 26.021 117.23 54.251 133.53" style="fill:#fafafa;"></polygon><polygon points="54.251 133.53 54.251 136.628 26.022 120.328 26.021 117.23 54.251 133.53" style="fill:#e6e6e6;"></polygon></g><g><polygon points="104.701 44.491 123.008 55.067 123.008 89.894 104.701 79.32 104.701 44.491" style="fill:#ebebeb;"></polygon><path d="M122.419,55.645l-17.718-10.168c-.913,1.055-2.266,1.791-4.051,2.215l17.567,10.124s1.135-.265,4.202-2.171Z" style="fill:#fff;"></path><path d="M116.515,57.756c.94,.539,2.465,.539,3.405,0l2.983-1.712c.94-.54,.94-1.414,0-1.954l-17.462-10.021-.74,.422,17.174,9.918c.564,.324,.564,.848,0,1.171l-2.772,1.573c-.565,.323-1.479,.323-2.043,0l-17.168-9.899-.838,.481,17.462,10.021Z" style="fill:#fafafa;"></path><path d="M99.055,47.734v34.827l17.46,10.02c.939,.539,2.465,.539,3.405,0l2.984-1.712c.468-.27,.704-.622,.704-.977V55.065c0,.356-.236,.707-.704,.977l-2.984,1.716c-.94,.539-2.465,.539-3.405,0l-17.46-10.024Z" style="fill:#e0e0e0;"></path><path d="M118.217,58.162c.616,0,1.233-.135,1.702-.404l2.984-1.716c.468-.27,.704-.621,.704-.977v34.828c0,.355-.236,.707-.704,.977l-2.984,1.712c-.47,.27-1.086,.404-1.702,.405V58.162Z" style="fill:#f0f0f0;"></path></g><g><polygon points="97.591 50.541 115.897 61.115 110.211 96.996 91.905 86.422 97.591 50.541" style="fill:#ebebeb;"></polygon><path d="M115.174,61.617l-17.727-10.173c-1.143,.921-2.717,1.53-4.715,1.831l17.57,10.126s1.269-.188,4.872-1.784Z" style="fill:#fff;"></path><path d="M108.466,63.263c.941,.54,2.593,.614,3.691,.165l3.484-1.423c1.098-.449,1.226-1.25,.285-1.79l-17.47-10.026-.864,.351,17.173,9.918c.564,.324,.488,.804-.171,1.073l-3.235,1.306c-.659,.268-1.651,.224-2.215-.1l-17.169-9.9-.978,.399,17.47,10.026Z" style="fill:#fafafa;"></path><path d="M90.997,53.236l-5.686,35.881,17.468,10.025c.94,.54,2.594,.614,3.691,.166l3.485-1.422c.547-.224,.854-.535,.905-.861l5.686-35.88c-.052,.326-.359,.636-.905,.86l-3.485,1.426c-1.097,.448-2.751,.374-3.691-.165l-17.468-10.029Z" style="fill:#e0e0e0;"></path><path d="M110.252,63.717c.668,.03,1.356-.063,1.904-.288l3.485-1.426c.547-.224,.854-.535,.905-.86l-5.686,35.88c-.052,.326-.359,.636-.905,.861l-3.485,1.422c-.549,.224-1.236,.318-1.905,.288l5.685-35.877Z" style="fill:#f0f0f0;"></path></g><g id="freepik--Picture--inject-18"><g id="freepik--Frame--inject-18"><polygon points="67.172 115.718 68.469 116.343 92.488 102.476 91.191 101.85 67.172 115.718" style="fill:#fafafa;"></polygon><polygon points="91.191 101.85 68.342 115.039 65.019 80.863 87.868 67.682 91.191 101.85" style="fill:#fff;"></polygon><path d="M91.012,63.306l-28.437,16.418,3.92,40.309,28.436-16.418-3.92-40.309Zm1.476,39.17l-24.018,13.867-3.45-35.48,24.018-13.867,3.45,35.48Z" style="fill:#f0f0f0;"></path><polygon points="92.488 102.476 91.191 101.85 87.868 67.682 89.037 66.996 92.488 102.476" style="fill:#e0e0e0;"></polygon><polygon points="91.012 63.306 89.697 62.698 61.26 79.116 62.575 79.724 91.012 63.306" style="fill:#fafafa;"></polygon><polygon points="61.26 79.116 62.575 79.724 66.495 120.032 65.181 119.425 61.26 79.116" style="fill:#e0e0e0;"></polygon></g><g id="freepik--Land--inject-18"><polygon points="90.186 101.2 69.122 113.362 68.562 107.605 72.479 90.691 76.214 96.463 75.44 101.325 81.668 83.38 89.626 95.444 90.186 101.2" style="fill:#f0f0f0;"></polygon><path d="M72.156,83.57c-.86,.497-1.484,1.662-1.392,2.603,.092,.941,.863,1.301,1.724,.804,.86-.497,1.484-1.662,1.392-2.603-.092-.941-.863-1.301-1.724-.804Z" style="fill:#f0f0f0;"></path></g></g><g id="freepik--Pot--inject-18"><path id="freepik--Shadow--inject-18" d="M55.34,113.345c3.897,2.25,3.897,5.898,0,8.148-3.897,2.25-10.215,2.25-14.112,0-3.897-2.25-3.897-5.898,0-8.148,3.897-2.25,10.215-2.25,14.112,0Z" style="opacity:.05;"></path><g><path d="M41.939,119.021c-3.394-3.463-5.388-12.11-2.077-14.856h16.843c3.309,2.746,1.318,11.388-2.074,14.853-.029,.032-.062,.063-.093,.095-.039,.039-.078,.077-.117,.114-.096,.093-.198,.184-.307,.273-.027,.022-.054,.042-.081,.064-.083,.065-.165,.13-.256,.193-.144,.103-.291,.198-.439,.28-2.792,1.612-7.318,1.612-10.11,0h0c-.149-.083-.296-.179-.442-.282-.084-.059-.16-.12-.238-.18-.034-.027-.067-.051-.1-.079-.106-.086-.204-.174-.296-.263-.046-.043-.09-.087-.135-.132-.025-.027-.054-.053-.078-.08Z" style="fill:#f5f5f5;"></path><path d="M55.242,102.846c3.843,2.219,3.843,5.816,0,8.035-3.843,2.219-10.074,2.219-13.917,0-3.843-2.219-3.843-5.816,0-8.035,3.843-2.219,10.074-2.219,13.917,0Z" style="fill:#fff;"></path><path d="M52.517,104.42c2.338,1.35,2.338,3.538,0,4.889-2.338,1.35-6.128,1.35-8.467,0-2.338-1.35-2.338-3.539,0-4.889,2.338-1.35,6.129-1.35,8.467,0Z" style="fill:#ebebeb;"></path><path d="M44.05,106.74c2.338-1.35,6.129-1.35,8.467,0,.65,.375,1.112,.816,1.401,1.284-.289,.469-.751,.909-1.401,1.284-2.338,1.35-6.128,1.35-8.467,0-.649-.375-1.112-.816-1.401-1.284,.289-.468,.751-.909,1.401-1.284Z" style="fill:#e0e0e0;"></path></g><path d="M52.001,108.024s1.648-1.57,3.062-4.071c1.414-2.501,1.675-5.851,.944-6.265-.731-.413-3.707,2.928-3.707,2.928,0,0,.438-2.041,.313-4.269-.125-2.227-.668-4.251-1.306-4.66-.638-.409-2.065,2.402-2.677,4.438-.612,2.037-.978,3.71-.978,3.71,0,0-.418-2.752-1.097-4.686-.742-2.114-1.416-2.592-1.938-2.383-.522,.209-.867,1.195-1.019,4.011-.107,1.972,.126,4.03,.126,4.03,0,0-1.049-1.154-2.214-2.273-1.279-1.229-1.827-1.398-2.192-1.164-.366,.234-.467,2.146,1.515,5.73,1.748,3.162,3.74,4.923,3.74,4.923,0,0,2.742,1.769,7.428,0Z" style="fill:#ebebeb;"></path></g></g></g><g id="freepik--Window--inject-18"><g id="freepik--Window-2--inject-18"><g id="freepik--Window-3--inject-18"><g id="freepik--Frame-2--inject-18"><polygon points="454.476 251.267 451.904 252.8 367.015 203.778 369.585 202.244 454.476 251.267" style="fill:#fafafa;"></polygon><polygon points="369.585 202.244 451.904 249.775 451.903 89.862 369.584 42.348 369.585 202.244" style="fill:#fff;"></polygon><path d="M362.161,206.578l94.596,54.626V87.061l-94.596-54.625V206.578Zm4.853-165.738l84.889,49.022V252.8l-84.889-49.022V40.839Z" style="fill:#f5f5f5;"></path><polygon points="367.015 203.778 369.585 202.244 369.584 42.348 367.014 40.839 367.015 203.778" style="fill:#e0e0e0;"></polygon><polygon points="451.904 193.618 451.904 196.636 367.015 147.614 369.585 146.079 451.904 193.618" style="fill:#fafafa;"></polygon><polygon points="451.904 137.423 451.904 140.441 367.015 91.419 369.585 89.884 451.904 137.423" style="fill:#fafafa;"></polygon><polygon points="362.16 32.435 364.772 30.941 459.367 85.566 456.756 87.061 362.16 32.435" style="fill:#fafafa;"></polygon><polygon points="459.367 85.566 456.756 87.061 456.756 261.203 459.367 259.709 459.367 85.566" style="fill:#e0e0e0;"></polygon><polygon points="414.498 68.266 411.887 66.758 411.887 229.705 414.498 228.211 414.498 68.266" style="fill:#e0e0e0;"></polygon></g><polygon points="407.034 63.97 411.887 66.758 411.887 229.705 407.035 226.895 407.034 63.97" style="fill:#f5f5f5;"></polygon><g><polygon points="362.161 88.618 362.161 94.214 456.756 148.839 456.756 143.243 362.161 88.618" style="fill:#f5f5f5;"></polygon><polygon points="362.161 144.8 362.161 150.396 456.756 205.021 456.756 199.425 362.161 144.8" style="fill:#f5f5f5;"></polygon></g><polygon points="411.887 117.337 414.498 115.827 451.904 137.423 451.904 140.441 411.887 117.337" style="fill:#fafafa;"></polygon><polygon points="411.887 173.502 414.498 171.991 451.904 193.588 451.904 196.606 411.887 173.502" style="fill:#fafafa;"></polygon></g></g></g><g id="freepik--Shadows--inject-18"><polygon id="freepik--Shadow-2--inject-18" points="373.865 329.618 305.162 369.299 232.587 327.452 301.474 287.875 373.865 329.618" style="fill:#e0e0e0;"></polygon><path id="freepik--Shadow-3--inject-18" d="M109.909,402.89c.433,.701,.899,1.38,1.39,2.033,3.255,4.329,7.591,7.706,11.949,10.922,13.901,10.26,29.762,17.737,44.049,27.546,17.074,11.723,34.293,20.566,56.11,18.811,6.073-.488,12.393-1.505,17.55-5.026,12.772-8.721,5.796-20.093-3.276-26.727-13.665-9.991-29.676-16.337-45.906-21.19-13.518-4.042-26.057-9.918-38.148-17.149-8.922-5.335-18.069-10.931-28.3-13.334-7.576-1.78-17.583,2.518-18.687,11.005-.593,4.56,.833,9.171,3.268,13.109Z" style="opacity:.1;"></path><path id="freepik--Shadow-4--inject-18" d="M92.588,333.484c11.466,6.695,11.465,17.549,0,24.243-11.466,6.695-30.057,6.695-41.523,0-11.466-6.694-11.466-17.548,0-24.243,11.466-6.695,30.056-6.695,41.522,0Z" style="fill:#e0e0e0;"></path></g><g id="freepik--Plant--inject-18"><g id="freepik--Plant-2--inject-18"><g id="freepik--Pot-2--inject-18"><path d="M54.211,349.571c-9.423-9.724-14.959-34.296-5.767-42.009h46.769c9.189,7.71,3.66,32.269-5.759,41.999-.081,.091-.173,.178-.257,.268-.108,.108-.216,.217-.325,.321-.266,.261-.549,.516-.852,.766-.075,.063-.15,.118-.226,.179-.231,.182-.459,.367-.711,.543-.402,.288-.807,.557-1.218,.787-7.752,4.526-20.32,4.526-28.071,0h-.002c-.414-.232-.823-.503-1.226-.793-.235-.165-.446-.336-.662-.506-.093-.074-.186-.144-.278-.22-.293-.242-.565-.488-.822-.74-.126-.119-.25-.245-.374-.37-.071-.075-.15-.148-.218-.225Z" style="fill:#ebebeb;"></path><path d="M91.151,304.456c10.671,6.23,10.671,16.332,0,22.562-10.672,6.23-27.973,6.23-38.644,0-10.671-6.23-10.671-16.332,0-22.562,10.671-6.231,27.972-6.231,38.643,0Z" style="fill:#fafafa;"></path><path d="M86.018,307.453c7.837,4.576,7.837,11.993,0,16.569-7.836,4.575-20.542,4.575-28.379,0-7.836-4.575-7.836-11.993,0-16.569,7.836-4.575,20.542-4.575,28.378,0Z" style="fill:#ebebeb;"></path><path d="M57.64,315.316c7.836-4.576,20.542-4.576,28.378,0,2.177,1.271,3.726,2.765,4.694,4.353-.968,1.588-2.517,3.082-4.694,4.353-7.836,4.575-20.542,4.575-28.378,0-2.177-1.271-3.727-2.765-4.694-4.353,.967-1.587,2.517-3.082,4.694-4.352Z" style="fill:#fff;"></path></g><g><path d="M65.427,270.357c-3.156,3.99-12.64,5.745-17.367-4.025-4.434-9.165-9.124-17.813-10.532-21.194-1.407-3.381,1.934-4.785,1.934-4.785,0,0-.123-5.211,8.941-2.365,8.972,2.816,15.677,7.711,20.17,16.052,4.429,8.221,2.653,14.709-3.147,16.318Z" style="fill:#f0f0f0;"></path><g><path d="M70.249,283.384c-.3-1.75-.668-3.49-1.163-5.196-.985-3.392-2.226-6.698-3.69-9.912-2.983-6.548-6.91-12.606-11.629-18.038-2.653-3.054-5.521-5.971-8.704-8.476-.096-.076-.151,.13-.086,.191,5.302,4.899,10.039,10.239,13.869,16.377,3.727,5.972,6.691,12.374,8.758,19.105,.577,1.881,1.136,3.773,1.635,5.676,.507,1.934,.862,3.901,1.342,5.84,.048,.194,.361,.291,.357,.022-.03-1.869-.375-3.75-.69-5.589Z" style="fill:#e0e0e0;"></path><path d="M70.249,283.384c-.3-1.75-.668-3.49-1.163-5.196-.985-3.392-2.226-6.698-3.69-9.912-2.983-6.548-6.91-12.606-11.629-18.038-2.653-3.054-5.521-5.971-8.704-8.476-.096-.076-.151,.13-.086,.191,5.302,4.899,10.039,10.239,13.869,16.377,3.727,5.972,6.691,12.374,8.758,19.105,.577,1.881,1.136,3.773,1.635,5.676,.507,1.934,.862,3.901,1.342,5.84,.048,.194,.361,.291,.357,.022-.03-1.869-.375-3.75-.69-5.589Z" style="opacity:.1;"></path></g><path d="M75.711,263.356c-8.23,2.545-14.344-3.878-12.227-13.953,2.116-10.074,12.698-21.256,16.695-18.252,2.495-2.495,7.995-1.6,10.582,6.581,2.587,8.181,.235,29.193-15.05,25.623Z" style="fill:#e0e0e0;"></path><g><path d="M80.538,237.28c-2.45,5.783-4.052,11.991-5.471,18.099-1.451,6.245-2.414,12.591-3.177,18.953-1.477,12.309-1.729,11.626-1.65,24.011,.022,3.427,.072,6.854,.137,10.281,.067,3.524,.011,7.095,.313,10.606,.116,1.347,2.031,.988,2.055-.245,.121-6.169-.217-12.365-.28-18.537-.062-6.1-.041,.928,.114-5.172,.316-12.419,1.223-24.841,3.331-37.094,.588-3.414,1.238-6.824,2.034-10.197,.838-3.549,1.864-7.046,2.797-10.57,.037-.14-.124-.324-.205-.134Z" style="fill:#e0e0e0;"></path><path d="M80.538,237.28c-2.45,5.783-4.052,11.991-5.471,18.099-1.451,6.245-2.414,12.591-3.177,18.953-1.477,12.309-1.729,11.626-1.65,24.011,.022,3.427,.072,6.854,.137,10.281,.067,3.524,.011,7.095,.313,10.606,.116,1.347,2.031,.988,2.055-.245,.121-6.169-.217-12.365-.28-18.537-.062-6.1-.041,.928,.114-5.172,.316-12.419,1.223-24.841,3.331-37.094,.588-3.414,1.238-6.824,2.034-10.197,.838-3.549,1.864-7.046,2.797-10.57,.037-.14-.124-.324-.205-.134Z" style="opacity:.1;"></path></g><path d="M56.663,290.584c-1.055,5.328-8.354,9.169-16.787,5.68-8.433-3.49-25.062-25.407-17.467-27.822-.414-3.98,22.558-7.247,33.921,6.759,8.26,10.181,.333,15.384,.333,15.384Z" style="fill:#e0e0e0;"></path><g><path d="M68.719,298.494c-1.045-1.347-2.216-2.571-3.425-3.768-2.463-2.439-5.047-4.743-7.741-6.924-5.51-4.458-11.501-8.188-17.79-11.438-3.482-1.8-7.052-3.543-10.74-4.884-.102-.037-.062,.159,.002,.189,3.069,1.45,6.142,2.859,9.109,4.515,3.072,1.715,6.043,3.624,8.928,5.636,5.555,3.874,10.82,8.159,15.704,12.852,1.387,1.332,2.706,2.733,4.107,4.051,1.454,1.368,3.019,2.629,4.411,4.061,.202,.208,.565,.115,.346-.187-.985-1.357-1.88-2.775-2.91-4.104Z" style="fill:#e0e0e0;"></path><path d="M68.719,298.494c-1.045-1.347-2.216-2.571-3.425-3.768-2.463-2.439-5.047-4.743-7.741-6.924-5.51-4.458-11.501-8.188-17.79-11.438-3.482-1.8-7.052-3.543-10.74-4.884-.102-.037-.062,.159,.002,.189,3.069,1.45,6.142,2.859,9.109,4.515,3.072,1.715,6.043,3.624,8.928,5.636,5.555,3.874,10.82,8.159,15.704,12.852,1.387,1.332,2.706,2.733,4.107,4.051,1.454,1.368,3.019,2.629,4.411,4.061,.202,.208,.565,.115,.346-.187-.985-1.357-1.88-2.775-2.91-4.104Z" style="opacity:.1;"></path></g><path d="M77.489,300.244c-4.415-1.943-3.576-7.536,3.51-13.23,7.085-5.694,22.204-5.855,22.343-2.853,3.232,.624,1.279,10.749-7.673,18.67-8.952,7.921-18.954,3.749-18.181-2.587Z" style="fill:#e0e0e0;"></path><g><path d="M88.447,292.09c-3.45,1.585-6.6,3.532-9.459,6.048-2.84,2.499-5.25,5.413-7.239,8.628-.227,.367,.345,1.078,.591,.679,3.885-6.302,9.576-11.754,16.114-15.256,.04-.022,.058-.128-.007-.098Z" style="fill:#e0e0e0;"></path><path d="M88.447,292.09c-3.45,1.585-6.6,3.532-9.459,6.048-2.84,2.499-5.25,5.413-7.239,8.628-.227,.367,.345,1.078,.591,.679,3.885-6.302,9.576-11.754,16.114-15.256,.04-.022,.058-.128-.007-.098Z" style="opacity:.1;"></path></g><path d="M78.394,309.985c-5.12,5.029,.54,11.26,8.84,14.343,8.3,3.083,17.487,1.001,21.493-.998,4.006-1.998,4.828-3.001,4.828-3.001,0,0-1.957-6.601-4.236-10.163-3.206-5.009-10.309-10.98-20.94-9.621-10.632,1.36-11.497,5.779-9.985,9.439Z" style="fill:#f0f0f0;"></path><g><path d="M99.881,313.762c-4.164-2.006-8.447-3.94-13.013-4.819-4.453-.857-9.932-.894-13.537,2.276-1.397,1.229-3.256,3.894-2.118,5.783,.113,.188,.674,.537,.8,.163,.395-1.178,.516-2.406,1.146-3.498,.655-1.135,1.649-1.983,2.784-2.616,2.788-1.552,6.29-1.901,9.43-1.601,5.068,.485,9.836,2.519,14.501,4.429,.051,.021,.049-.097,.008-.118Z" style="fill:#e0e0e0;"></path><path d="M99.881,313.762c-4.164-2.006-8.447-3.94-13.013-4.819-4.453-.857-9.932-.894-13.537,2.276-1.397,1.229-3.256,3.894-2.118,5.783,.113,.188,.674,.537,.8,.163,.395-1.178,.516-2.406,1.146-3.498,.655-1.135,1.649-1.983,2.784-2.616,2.788-1.552,6.29-1.901,9.43-1.601,5.068,.485,9.836,2.519,14.501,4.429,.051,.021,.049-.097,.008-.118Z" style="opacity:.1;"></path></g><path d="M79.799,278.3c-1.28,4.498,4.46,8.697,11.602,6.292,7.142-2.406,14.558-4.637,20.647-4.712,6.088-.075,9.947-4.08,8.693-6.784-1.254-2.703-2.73-9.113-18.241-10.944-15.511-1.832-22.508,3.643-25.746,7.926-3.238,4.283,.459,8.974,3.045,8.222Z" style="fill:#f0f0f0;"></path><g><path d="M108.619,268.846c-1.601-.425-3.356-.474-5.005-.458-1.618,.015-3.238,.134-4.836,.397-3.147,.517-6.204,1.544-9.114,2.835-5.452,2.418-10.862,5.574-14.405,10.486-1.868,2.59-3.493,5.532-4.564,8.546-.206,.579,.916,.906,1.171,.387,1.238-2.528,2.311-5.079,3.877-7.437,1.598-2.405,3.572-4.531,5.942-6.189,4.906-3.434,10.592-6.226,16.454-7.529,1.726-.384,3.482-.678,5.25-.773,1.778-.096,3.504,.103,5.273,.198,.235,.013,.125-.417-.041-.461Z" style="fill:#e0e0e0;"></path><path d="M108.619,268.846c-1.601-.425-3.356-.474-5.005-.458-1.618,.015-3.238,.134-4.836,.397-3.147,.517-6.204,1.544-9.114,2.835-5.452,2.418-10.862,5.574-14.405,10.486-1.868,2.59-3.493,5.532-4.564,8.546-.206,.579,.916,.906,1.171,.387,1.238-2.528,2.311-5.079,3.877-7.437,1.598-2.405,3.572-4.531,5.942-6.189,4.906-3.434,10.592-6.226,16.454-7.529,1.726-.384,3.482-.678,5.25-.773,1.778-.096,3.504,.103,5.273,.198,.235,.013,.125-.417-.041-.461Z" style="opacity:.1;"></path></g><path d="M67.08,303.654c-1.211-4.626-7.074-7.222-14.738-7.794-7.664-.573-15.053,2.928-19.063,9.783-4.009,6.855-5.674,12.312-3.237,13.208,2.437,.895,12.732,2.322,19.381,2.912,6.649,.59,14.948-.605,20.369-5.657,5.421-5.052,3.634-11.388-2.711-12.452Z" style="fill:#e0e0e0;"></path><g><path d="M67.366,303.043c-2.602-.838-5.594-.69-8.276-.386-2.662,.303-5.282,.928-7.813,1.8-2.676,.922-5.257,2.121-7.738,3.48-1.298,.711-2.573,1.465-3.821,2.261-1.161,.74-2.385,1.464-3.428,2.368-.04,.035-.033,.196,.043,.162,1.259-.563,2.437-1.359,3.638-2.035,1.297-.73,2.602-1.444,3.929-2.117,2.48-1.256,5.026-2.378,7.668-3.252,2.635-.872,5.364-1.488,8.13-1.74,2.608-.237,5.156,.029,7.756,.198,.535,.035,.232-.635-.087-.738Z" style="fill:#e0e0e0;"></path><path d="M67.366,303.043c-2.602-.838-5.594-.69-8.276-.386-2.662,.303-5.282,.928-7.813,1.8-2.676,.922-5.257,2.121-7.738,3.48-1.298,.711-2.573,1.465-3.821,2.261-1.161,.74-2.385,1.464-3.428,2.368-.04,.035-.033,.196,.043,.162,1.259-.563,2.437-1.359,3.638-2.035,1.297-.73,2.602-1.444,3.929-2.117,2.48-1.256,5.026-2.378,7.668-3.252,2.635-.872,5.364-1.488,8.13-1.74,2.608-.237,5.156,.029,7.756,.198,.535,.035,.232-.635-.087-.738Z" style="opacity:.1;"></path></g></g></g></g><g id="freepik--Boxes--inject-18"><g id="freepik--Box--inject-18"><g><polygon points="244.816 261.869 301.513 229.135 361.679 263.958 304.981 296.692 244.816 261.869" style="fill:#f5f5f5;"></polygon><polygon points="304.981 362.935 244.816 328.112 244.816 261.869 304.981 296.691 304.981 362.935" style="fill:#ebebeb;"></polygon><polygon points="304.981 362.935 361.679 330.201 361.679 263.958 304.981 296.692 304.981 362.935" style="fill:#e0e0e0;"></polygon></g><g><polygon points="338.038 277.597 277.824 242.803 268.382 248.263 328.605 283.052 338.038 277.597" style="fill:#fafafa;"></polygon><polygon points="338.038 277.597 338.038 288.508 336.728 287.742 334.967 290.291 333.871 289.352 331.943 292.037 330.706 291.051 328.606 293.964 328.605 283.052 338.038 277.597" style="fill:#e6e6e6;"></polygon></g></g><g id="freepik--Box-2--inject-18"><g><polygon points="253.84 223.483 301.781 195.804 352.655 225.249 304.714 252.928 253.84 223.483" style="fill:#f5f5f5;"></polygon><polygon points="304.713 289.833 253.839 260.388 253.839 223.483 304.714 252.928 304.713 289.833" style="fill:#ebebeb;"></polygon><polygon points="304.714 289.833 352.655 262.154 352.655 225.249 304.714 252.928 304.714 289.833" style="fill:#e0e0e0;"></polygon></g><g><polygon points="332.666 236.782 281.75 207.361 273.767 211.978 324.689 241.395 332.666 236.782" style="fill:#fafafa;"></polygon><polygon points="332.666 236.782 332.666 246.008 331.557 245.36 330.069 247.515 329.142 246.721 327.511 248.992 326.466 248.158 324.69 250.622 324.689 241.395 332.666 236.782" style="fill:#e6e6e6;"></polygon></g></g><g id="freepik--Box-3--inject-18"><polygon points="381.23 350.372 306.298 393.635 381.238 436.898 456.163 393.635 381.23 350.372" style="fill:#e0e0e0;"></polygon><g id="freepik--Box-4--inject-18"><g id="freepik--Box-5--inject-18"><g id="freepik--Box-6--inject-18"><g id="freepik--Front_Box--inject-18"><polygon points="317.396 319.924 317.395 393.634 381.235 430.471 381.236 356.779 317.396 319.924" style="fill:#407BFF;"></polygon><g><polygon points="381.236 356.779 381.235 430.471 445.065 393.634 445.065 319.924 381.236 356.779" style="fill:#407BFF;"></polygon><polygon points="381.236 356.779 381.235 430.471 445.065 393.634 445.065 319.924 381.236 356.779" style="fill:#fff; opacity:.25;"></polygon><polygon points="381.237 356.779 382.236 428.644 419.077 408.632 381.235 430.471 381.237 356.779" style="fill:#fff; opacity:.4;"></polygon></g></g></g><polygon points="381.23 283.069 317.396 319.924 381.237 356.779 445.065 319.924 381.23 283.069" style="fill:#407BFF;"></polygon><polygon points="381.23 283.069 317.396 319.924 381.237 356.779 445.065 319.924 381.23 283.069" style="fill:#fff; opacity:.4;"></polygon><polygon points="317.396 319.924 381.028 354.885 445.065 319.924 381.237 356.779 317.396 319.924" style="fill:#fff; opacity:.1;"></polygon><polygon points="344.754 304.133 408.588 340.986 417.711 335.719 353.88 298.864 344.754 304.133" style="fill:#407BFF;"></polygon><g><polygon points="417.708 335.719 417.708 347.308 416.607 346.679 415.461 348.656 414.316 347.982 413.171 349.981 412.025 349.307 410.88 351.283 409.734 350.632 408.588 352.609 408.588 340.997 417.708 335.719" style="fill:#407BFF;"></polygon><polygon points="417.708 335.719 417.708 347.308 416.607 346.679 415.461 348.656 414.316 347.982 413.171 349.981 412.025 349.307 410.88 351.283 409.734 350.632 408.588 352.609 408.588 340.997 417.708 335.719" style="opacity:.25;"></polygon></g></g></g></g></g><g id="freepik--Character--inject-18"><g id="freepik--Character-2--inject-18"><g id="freepik--Bottom--inject-18"><g><g><path d="M163.981,405.707c.722-1.292,.66-3.309,.358-4.694-.493-2.27-1.703-4.306-2.722-6.393-4.039-8.272-5.171-17.929-3.154-26.91,.897-3.995,3.976-7.086,6.627-10.081,5.745-6.491,12.032-12.506,18.345-18.435l-21.766-21.773c-4.396,7.266-16.807,31.607-16.807,31.607l-1.358,2.608c-.447,.563-.697,1.234-1.096,1.801-.512,.727-1.338,1.35-1.968,1.978-1.304,1.302-2.609,2.605-3.913,3.907-1.145,1.143-2.33,2.35-2.815,3.894-.906,2.881,.853,5.827,1.84,8.681,1.605,4.641,1.173,9.697,1.415,14.601,.066,1.326,.184,2.658,.536,3.939,.659,2.394,2.106,4.495,3.713,6.388,3.657,4.309,8.279,7.793,13.428,10.124,1.691,.766,3.628,.972,5.477,.72,1.286-.176,3.162-.734,3.862-1.961Z" style="fill:#ffa8a7;"></path><g><path d="M131.51,362.295c-.86,1.308-1.191,2.588-1.502,4.084-.311,1.495,3.161,7.271,3.486,10.217,.326,2.946,.031,3.888,.124,7.71,.104,4.236-1.11,8.639,5.664,16.861,6.864,8.332,13.289,10.794,18.177,11.479,2.569,.36,5.231-.794,5.231-.794,0,0,4.37-4.072,2.325-6.805-2.045-2.733-33.505-42.751-33.505-42.751Z" style="fill:#263238;"></path><path d="M161.843,365.178c.254,1.028-.439,2.251-.985,4.473-.509,2.073-.836,6.057-.191,9.469,3.053,16.15,8.707,22.334,4.793,29.463-1.428,2.602-6.709,3.986-17.881-2.405-5.707-3.266-11.883-12.257-12.253-17.322-.369-5.065,.437-8.792-.028-12.615-.466-3.822-4.477-10.217-3.789-13.945,.574-2.515,3.283-5.209,4.346-6.096,2.136-1.783,4.47-3.886,5.584-5.305,1.204-1.534,2.059-2.535,3.423-1.865l-1.358,2.608c-1.133,4.69-.964,5.654-.727,7.724,.314,2.742,1.29,3.889,1.742,6.04,.899-3.107,.826-5.604,2.973-6.197,1.173-.324,2.404-.412,6.431,1.126,4.027,1.538,7.694,3.936,7.92,4.849Z" style="fill:#455a64;"></path><path d="M147.662,406.214c-5.707-3.265-11.883-12.257-12.253-17.322-.134-1.831-.112-3.483-.054-5.033,.061,.327,.097,.672,.162,.948,.145,.615,.307,1.226,.49,1.831,.702,2.327,1.709,4.762,3.511,6.46,1.604,1.512,5.457,5.373,8.008,4.449,1.444-.523,2.074-2.403,1.971-4.214-.044-.765-.403-2.729-.403-2.729,0,0,4.027-.718,7.606-.008,4.622,.916,4.708,1.503,4.708,1.503,.184,.883,.591,2.346,1.189,3.24,.599,.896,1.432,2.033,2.254,2.479,.463,.251,.798,.384,1.117,.465,1.258,3.497,1.979,6.614-.425,10.336-1.725,2.415-6.709,3.986-17.881-2.405Z" style="fill:#37474f;"></path><path d="M160.335,373.8c-.005,.009-.011,.012-.016,.022-.327,.653-.284,1.6-.299,2.31-.076,3.531,.584,7.142,1.147,10.629,.201,1.245,.292,2.866-.167,4.041-.191,.49-.597,.983-.673,1.504-.082,.562-.032,.739,.396,1.111,.512,.444,1.325,.57,1.925,.237,.45-.251,.629-.763,.847-1.202,.146-.292,.273-.592,.387-.898-1.081-3.409-2.272-7.444-3.215-12.434-.328-1.735-.404-3.616-.332-5.32Z" style="fill:#37474f;"></path><path d="M140.261,358.23c-.192-2.014,.009-4.325,.416-6.457,.29-.316,.557-.618,.762-.88,1.204-1.534,2.059-2.535,3.423-1.865l-1.358,2.608c-.174,1.213-.736,3.717-.208,6.822,.527,3.105,.771,4.791,1.223,6.942,1.131,7.091,.63,9.82,2.416,16.225,1.787,6.405,4.693,10.012,3.972,10.71-.721,.699-2.749,.72-5.072-4.049-2.322-4.769-3.531-13.884-3.603-18.409-.072-4.525-1.537-7.09-1.971-11.647Z" style="fill:#37474f;"></path><g><path d="M148.809,390.518c.111,.062,.24,.092,.376,.08,4.715-.403,7.415,.011,11.879,2.926,.311,.187,.711,.114,.912-.191,.198-.304,.113-.713-.191-.911-4.717-3.08-7.697-3.567-12.712-3.136-.361,.032-.63,.35-.6,.712,.02,.227,.152,.417,.337,.519Z" style="fill:#ebebeb;"></path><path d="M147.735,385.51c.111,.056,.24,.081,.372,.068,4.896-.505,7.854-.083,12.707,2.779,.362,.203,.737,.082,.927-.239,.189-.322,.082-.737-.239-.926-5.118-3.011-8.343-3.494-13.535-2.959-.371,.038-.641,.37-.603,.741,.026,.239,.171,.436,.37,.536Z" style="fill:#ebebeb;"></path><path d="M146.015,380.111c.122,.06,.264,.086,.411,.069,5.392-.635,8.867-.14,14.261,2.935,.342,.202,.812,.079,1.017-.279,.203-.357,.079-.812-.28-1.017-5.677-3.229-9.459-3.792-15.173-3.119-.409,.048-.701,.419-.653,.828,.032,.263,.195,.477,.417,.584Z" style="fill:#ebebeb;"></path><path d="M145.345,374.487c.12,.059,.258,.086,.402,.07,5.29-.581,8.644-.086,13.919,2.979,.335,.194,.795,.084,.998-.265,.204-.348,.084-.795-.265-.998-5.535-3.217-9.206-3.783-14.812-3.168-.4,.044-.69,.405-.646,.806,.028,.257,.187,.469,.404,.576Z" style="fill:#ebebeb;"></path><path d="M144.791,368.718c.118,.062,.256,.092,.401,.08,5.304-.44,9.183,.732,14.381,3.935,.338,.207,.793,.105,1.005-.239,.212-.343,.105-.793-.239-1.005-5.457-3.361-9.646-4.615-15.268-4.148-.402,.034-.701,.388-.668,.79,.022,.258,.176,.474,.389,.587Z" style="fill:#ebebeb;"></path></g></g></g><g><path d="M223.469,170.529c4.464,13.822,8.636,24.953,11.848,54.019,3.012,27.259,4.718,39.943,2.104,53.906-.898,4.794-8.413,14.972-14.086,21.333-14.539,16.302-40.254,42.005-40.254,42.005,0,0-8.998-.538-15.563-8.264-8.196-9.644-5.435-16.825-5.435-16.825,0,0,2.981-5.695,12.292-23.134,11.62-21.764,21.214-25.087,21.214-25.087l-13.941-92.209c18.628,1.691,33.138,1.395,41.821-5.744Z" style="fill:#263238;"></path><path d="M204.376,320.068c1.333-12.542,2.692-27.415,2.527-34.633-.315-13.791-.218-62.191-.218-62.191,12.57-8.41,12.993-17.759,12.609-27.347-10.608-.098-21.068,1.196-31.631,1.585-.926,.034-1.846,.148-2.759,.32l10.685,70.681s-9.594,3.323-21.214,25.087c-9.31,17.439-12.292,23.134-12.292,23.134,0,0-2.762,7.181,5.435,16.825,6.566,7.725,15.563,8.264,15.563,8.264,0,0,10.146-10.142,21.296-21.724Z"></path></g></g><g><g><path d="M205.907,418.717s-9.569-11.947-9.569-26.43,1.576-39.159,1.576-39.159l-29.603,7.559,6.503,38.721,.343,3.057s-1.69,16.913,11.533,17.415c6.773,.257,19.218-1.162,19.218-1.162Z" style="fill:#ffa8a7;"></path><g><path d="M170.962,418.717c.016,1.638,.476,2.943,1.079,4.422,.603,1.479,6.987,4.468,8.989,6.836,2.001,2.368,2.295,3.358,4.607,6.621,2.562,3.617,4.078,8.149,14.756,11.334,10.821,3.228,17.835,1.616,22.479-.641,2.441-1.186,4.078-3.742,4.078-3.742,0,0,1.418-6.085-1.952-7.264-3.37-1.18-54.034-17.566-54.034-17.566Z" style="fill:#263238;"></path><path d="M198.98,403.521c.821,.744,.932,2.211,1.755,4.458,.768,2.097,2.808,5.746,5.359,8.333,12.075,12.24,20.591,14.31,21.353,22.782,.278,3.092-3.498,7.376-16.927,8.345-6.86,.495-17.468-3.707-20.746-7.889-3.276-4.182-4.751-7.888-7.386-10.936-2.635-3.046-9.848-6.258-11.426-9.897-.969-2.518-.19-6.437,.215-7.828,.814-2.794,1.613-5.982,1.752-7.864,.15-2.035,.309-3.402,1.883-3.617l.343,3.057c1.753,4.733,2.462,5.472,3.876,7.131,1.872,2.197,3.39,2.623,5.037,4.227-1.032-3.222-2.553-5.347-1.034-7.115,.829-.965,1.846-1.761,6.24-2.775,4.394-1.014,8.977-1.073,9.706-.411Z" style="fill:#455a64;"></path><path d="M210.612,447.423c-6.86,.495-17.468-3.707-20.746-7.889-1.184-1.512-2.13-2.959-2.983-4.338,.244,.248,.476,.527,.694,.728,.485,.449,.982,.885,1.494,1.303,1.967,1.61,4.262,3.137,6.818,3.56,2.275,.376,7.873,1.48,9.548-.81,.948-1.297,.399-3.297-.748-4.809-.484-.639-1.942-2.134-1.942-2.134,0,0,3.078-2.973,6.599-4.445,4.548-1.901,4.965-1.442,4.965-1.442,.675,.66,1.882,1.692,2.923,2.12,1.043,.428,2.429,.93,3.404,.837,.549-.052,.916-.133,1.241-.249,3.133,2.302,5.577,4.588,5.662,9.222-.089,3.103-3.499,7.376-16.927,8.345Z" style="fill:#37474f;"></path><path d="M202.702,411.886c0,.01-.002,.017-.001,.028,.097,.758,.687,1.555,1.088,2.181,1.995,3.11,4.674,5.86,7.198,8.559,.901,.964,1.926,2.318,2.213,3.605,.12,.537,.056,1.202,.294,1.699,.257,.535,.403,.661,.992,.734,.703,.087,1.483-.278,1.809-.917,.245-.481,.101-1.029,.034-1.539-.044-.338-.109-.673-.188-1.005-2.928-2.329-6.316-5.137-10.047-8.919-1.297-1.315-2.46-2.904-3.393-4.425Z" style="fill:#37474f;"></path><path d="M176.188,410.082c-1.341-1.636-2.516-3.76-3.407-5.849,.067-.443,.123-.862,.149-1.209,.15-2.035,.309-3.402,1.883-3.617l.343,3.057c.557,1.155,1.53,3.656,3.8,6.044,2.27,2.388,3.465,3.71,5.113,5.313,5.12,5.497,6.277,8.158,11.565,12.677,5.289,4.518,9.916,5.953,9.698,6.981-.218,1.028-1.967,2.229-6.766-.556-4.799-2.785-11.167-9.994-13.87-13.88-2.703-3.886-5.471-5.258-8.507-8.962Z" style="fill:#37474f;"></path><g><path d="M202.45,433.126c.133-.011,.262-.061,.373-.149,3.859-3.102,6.444-4.317,12.021-4.391,.379-.019,.684-.316,.68-.698-.006-.38-.318-.686-.698-.68-5.892,.079-8.763,1.394-12.867,4.695-.295,.238-.343,.671-.105,.968,.15,.186,.376,.273,.595,.255Z" style="fill:#ebebeb;"></path><path d="M198.594,429.405c.129-.016,.256-.069,.363-.157,3.956-3.295,6.771-4.655,12.654-5.002,.432-.035,.688-.359,.665-.748-.024-.39-.359-.687-.747-.665-6.2,.372-9.283,1.835-13.477,5.328-.3,.249-.341,.695-.091,.995,.161,.193,.403,.278,.634,.249Z" style="fill:#ebebeb;"></path><path d="M193.951,425.721c.141-.02,.28-.079,.397-.18,4.311-3.697,7.617-5.296,14.094-5.773,.415-.024,.751-.406,.72-.836-.033-.428-.406-.751-.836-.72-6.813,.509-10.425,2.227-14.994,6.146-.327,.28-.364,.773-.084,1.1,.181,.209,.447,.3,.703,.264Z" style="fill:#ebebeb;"></path><path d="M190.088,421.23c.139-.018,.275-.076,.39-.174,4.254-3.591,7.455-5.118,13.823-5.535,.404-.027,.739-.391,.711-.813-.027-.421-.391-.74-.813-.712-6.683,.436-10.2,2.087-14.708,5.892-.322,.271-.363,.754-.091,1.077,.174,.207,.436,.298,.687,.265Z" style="fill:#ebebeb;"></path><path d="M186.24,416.544c.139-.015,.276-.069,.395-.164,4.348-3.477,8.4-4.724,14.782-4.975,.414-.017,.75-.372,.733-.794-.016-.422-.372-.75-.794-.733-6.699,.266-11.068,1.622-15.676,5.308-.329,.264-.382,.746-.119,1.076,.17,.211,.429,.309,.681,.282Z" style="fill:#ebebeb;"></path></g></g></g><g><path d="M223.14,167.337s2.368,15.853-2.682,30.306c-4.387,12.554-10.221,19.87-19.087,22.816,0,0,.355,56.137,1.145,63.983,.791,7.845-1.051,36.283-2.716,55.003-1.666,18.719-2.166,25.127-2.166,25.127,0,0-3.908,4.218-14.856,4.434-10.947,.216-14.419-4.408-14.419-4.408,0,0-6.918-21.633-7.209-38.613-.167-9.734,1.923-14.568,.11-24.213-1.812-9.645-15.182-52.597-17.443-72.959-2.261-20.362-4.998-34.632,9.391-60.361,15.236,10.168,56.063,8.876,69.932-1.114Z" style="fill:#263238;"></path><path d="M165.354,172.86c-7.675,10.832-18.732,33.171-10.885,65.167,2.231,9.098,4.457,17.879,6.611,26.37,5.041,19.886,9.023,35.592,9.561,41.588,.297,3.317-.066,6.467-.484,10.113-.658,5.717-1.477,12.831-.003,23.787,1.377,10.242,3.371,21.005,4.813,28.289-.462-.122-.899-.25-1.306-.387-1.434-7.285-3.36-17.762-4.703-27.741-1.493-11.102-.665-18.297,0-24.079,.412-3.582,.768-6.677,.482-9.872-.529-5.902-4.502-21.569-9.529-41.403-2.153-8.494-4.381-17.277-6.612-26.379-7.904-32.228,3.121-54.825,10.908-65.912,.376,.158,.758,.311,1.147,.46Z"></path></g></g></g><g id="freepik--Top--inject-18"><path d="M205.62,38.852c-5.432,.624-9.418,3.905-11.568,6.478-4.6,5.506-5.291,13.53-10.004,18.939-1.802,2.069-4.099,3.637-6.111,5.503-3.99,3.702-6.855,8.687-7.664,14.069-.675,4.491-.058,10.192,2.539,14.006,2.743,4.03,6.432,7.415,10.693,9.784,2.478,1.378,5.133,2.414,7.837,3.269,15.172,4.796,31.108,3.677,46.274-.175,8.158-2.072,14.839-9.104,16.489-17.358,.565-2.825,.542-5.906-.881-8.411,2.341,.983,3.687,3.872,2.934,6.297,2.264-1.264,2.668-4.431,1.984-6.932s-2.156-4.747-2.713-7.279c-.366-1.667-.318-3.424,.14-5.069,.439-1.576,1.238-3.026,1.823-4.553,1.221-3.185,1.491-6.729,.766-10.062-.484-2.227-1.396-4.342-2.471-6.351-3.558-6.651-9.038-12.314-15.73-15.794-6.692-3.48-14.589-4.709-21.959-3.102-2.742,.598-8.126,2.686-12.378,6.74Z" style="fill:#37474f;"></path><path d="M153.208,168.452c-.533-.63,3.305-16.762,5.666-31.162,2.361-14.4,12.554-40.657,17.499-41.44,13.416-2.127,39.874-5.91,48.748-.036,6.998,4.631,14.846,22.657,17.361,31.595,3.885,13.808-2.618,26.022-13.671,27.971l-5.343,15.15s-1.394,9.533-24.061,11.606c-21.972,2.009-41.18-4.988-46.201-13.684Z" style="fill:#407BFF;"></path><path d="M153.208,168.452c-.533-.63,3.305-16.762,5.666-31.162,2.361-14.4,12.554-40.657,17.499-41.44,13.416-2.127,39.874-5.91,48.748-.036,6.998,4.631,14.846,22.657,17.361,31.595,3.885,13.808-2.618,26.022-13.671,27.971l-5.343,15.15s-1.394,9.533-24.061,11.606c-21.972,2.009-41.18-4.988-46.201-13.684Z" style="fill:#fff; opacity:.2;"></path><g id="freepik--Head--inject-18"><g><path d="M194.833,76.724c4.447,3.484,7.682,.66,7.682,.66l-8.286,18.354s-.152,4.556,4.971,10.86c6.221,7.655,11.986,14.307,20.183,18.345,1.276-8.846-.259-15.553-.381-19.951l2.689-5.601s2.769,1.605,8.956,1.048c5.381-.484,9.289-2.15,12.234-7.54,3.05-5.583,3.405-11.74,4.969-18.743,.951-4.258,1.958-8.806,1.017-13.157-.897-4.144-4.126-8.567-8.603-9.06-3.155-.348-5.484,1.661-8.667,.519-2.459-.882-4.586-2.642-7.297-2.727-3.523-.11-7.176,1.882-8.482,5.155-.521,1.305-.663,2.731-1.124,4.058-.708,2.032-2.187,3.786-4.071,4.826-.743,.41-1.603,.766-1.87,1.626-.42,1.352-.493,3.916-2.772,3.062-.84-.315-1.414-1.106-1.772-1.928-.359-.822-.554-1.71-.924-2.527-1.814-4.004-7.068-4.746-10.248-2.052-4.486,3.8-1.429,12.245,1.799,14.773Z" style="fill:#ffa8a7;"></path><path d="M205.344,78.772s-1.688,5.743,1.083,11.991c2.078,4.686,10.221,9.833,13.683,11.919l1.58-3.29c-5.452-2.329-11.123-6.43-13.498-10.316-2.375-3.886-2.847-10.303-2.847-10.303Z" style="fill:#f28f8f;"></path><path d="M228.084,61.17c-.159,.009-.352,.087-.357,.246-.006,.179,.15,.213,.274,.281,.202,.111,.394,.254,.573,.398,.181,.144,.355,.306,.459,.513,.074,.148,.108,.313,.134,.477,.045,.28,.047,.547,.051,.825,.003,.229,.191,.379,.415,.198,.085-.068,.138-.167,.181-.266,.133-.312,.194-.637,.165-.961-.016-.18-.06-.36-.135-.537-.277-.657-1.026-1.215-1.759-1.175Zm8.973,.473c.108-.374-.283-.756-.654-.63-.629,.214-1.05,.873-1.255,1.478-.294,.864-.246,1.94,.455,2.598,.102,.096,.258,.183,.373,.104,.28-.192,.073-1.183,.092-1.46,.028-.412,.158-.815,.372-1.168,.187-.308,.514-.569,.617-.923Zm-4.866-2.169c-.1-.067-.194-.036-.237,.077-.092,.241,.017,.426,.118,.636,.113,.233,.206,.476,.279,.725,.145,.489,.218,.999,.23,1.509,.011,.48-.032,.96-.112,1.432-.076,.445-.22,.876-.293,1.32-.007,.045,.018,.174,.088,.117,.803-.656,1.001-1.714,.998-2.699-.001-.547-.072-1.109-.229-1.633-.154-.516-.379-1.173-.843-1.484Z" style="fill:#f28f8f;"></path></g><g><path d="M220.01,64.36l5.5-1.437c.36,1.566-.581,3.159-2.099,3.555-1.52,.397-3.042-.551-3.401-2.118Z" style="fill:#37474f;"></path><path d="M240.275,64.114l4.826,3.087c-.809,1.376-2.545,1.799-3.878,.947-1.333-.852-1.757-2.658-.948-4.034Z" style="fill:#37474f;"></path><path d="M226.123,69.308c-.15-1.282-1.302,.151-2.839,.331-1.538,.179-2.88-.962-2.73,.32,.15,1.282,1.518,2.175,3.056,1.995,1.538-.179,2.663-1.364,2.513-2.645Z" style="fill:#263238;"></path><path d="M244.156,72.397c.431-1.216-1.235-.439-2.694-.956-1.46-.517-2.16-2.134-2.591-.917-.431,1.216,.403,2.621,1.862,3.139,1.459,.517,2.991-.049,3.423-1.265Z" style="fill:#263238;"></path><polygon points="231.253 68.197 232.21 82.735 239.103 80.445 231.253 68.197" style="fill:#f28f8f;"></polygon><g><path d="M224.502,84.976c-.385,.191-.726,.45-.984,.788-.805,1.054,.097,1.73,1.115,1.943,1.12,.234,2.195,.679,3.153,1.306,.462,.302,.879,.654,1.455,.648,.315-.004,.721-.174,.919-.42,.193-.239,.275-.636,.266-.944-.037-1.224-.749-2.624-2.057-3.282-1.203-.605-2.655-.64-3.866-.039Z" style="fill:#b16668;"></path><path d="M227.786,89.012c.238,.156,.466,.323,.708,.449-.27-2.204-2.004-4.02-4.303-4.29-.254,.164-.489,.352-.673,.592-.805,1.054,.097,1.73,1.115,1.943,1.12,.234,2.195,.679,3.153,1.306Z" style="fill:#f28f8f;"></path></g></g></g><g><path d="M176.374,95.849c-16.197,1.686-17.605,2.492-32.847,9.695-10.634,5.025-25.602,11.046-31.32,14.695-9.129,5.826-7.266,12.268,1.535,20.326,5.716,5.234,20.117,17.782,26.843,24.114,1.124,1.058,1.829,1.665,1.533,3.193-.35,1.805-1.084,3.976-1.49,5.727-.309,1.333-.618,2.669-.757,4.03-.122,1.19-.113,2.388-.103,3.584,.047,6.041-.141,11.994-.033,18.028,.004,.216,.01,.442,.112,.633,.401,.754,2.418,.555,3.06,.262,.744-.339,1.273-1.29,1.598-1.993,.681-1.472,.932-3.086,1.08-4.688,.135-1.476,.497-2.848,.626-4.332,.107-1.225,.37-2.43,.634-3.631,1.147-5.236,2.865-9.88,6.102-14.203,.208-.277,.49-.579,.833-.53,.402,.058,.565,.539,.645,.937,.455,2.26,.911,4.519,1.366,6.779,.548,2.721,1.602,6.329,5.113,6.078,.342-.025,.715-.12,.907-.404,.167-.247,.153-.57,.132-.868-.248-3.552-.38-7.099-.597-10.641-.123-2.009-.249-4.032-.731-5.987-.703-2.848-2.486-5.23-4.135-7.599-1.548-2.224-3.13-4.428-4.772-6.583-3.412-4.482-7.451-11.047-10.803-15.578l25.333-7.897c11.613-5.258,18.841-23.229,10.137-33.147Z" style="fill:#ffa8a7;"></path><path d="M140.904,136.893c-6.95,1.676-17.793,1.937-22.304-.405,4.597,4.337,14.746,5.638,23.924,2.667l-1.62-2.261Z" style="fill:#f28f8f;"></path></g></g></g></g><g id="freepik--Bolts--inject-18"><g id="freepik--Bolts-2--inject-18"><polygon points="92.496 176.97 110.432 174.412 112.388 179.887 121.211 174.716 122.389 179.706 133.971 175.635 118.791 188.176 117.655 182.582 107.46 190.853 105.024 183.158 95.29 190.182 92.496 176.97" style="fill:#407BFF;"></polygon><g><polygon points="124.808 159.267 123.868 165.44 135.022 170.57 118.061 169.233 118.467 164.213 105.389 163.064 109.01 153.475 124.808 159.267" style="fill:#407BFF;"></polygon><polygon points="124.808 159.267 123.868 165.44 135.022 170.57 118.061 169.233 118.467 164.213 105.389 163.064 109.01 153.475 124.808 159.267" style="fill:#fff; opacity:.3;"></polygon></g><g><polygon points="118.291 192.757 124.265 194.573 135.575 180.843 127.978 201.032 122.469 199.547 117.569 211.49 109.128 204.817 118.291 192.757" style="fill:#407BFF;"></polygon><polygon points="118.291 192.757 124.265 194.573 135.575 180.843 127.978 201.032 122.469 199.547 117.569 211.49 109.128 204.817 118.291 192.757" style="fill:#fff; opacity:.6;"></polygon></g></g></g><g id="freepik--Back_pain_details--inject-18"><g id="freepik--Speech_Bubble--inject-18"><g id="freepik--Speech_Bubble-2--inject-18"><path d="M295.191,148.949c-7.886-4.55-13.284-11.768-15.748-19.861l-.931-3.84c-1.426-7.775-.219-16.079,4.035-23.451,9.511-16.485,30.661-22.159,47.146-12.648,7.372,4.253,12.574,10.838,15.23,18.283l1.116,3.79c1.917,8.241,.857,17.191-3.693,25.077-9.515,16.491-30.665,22.165-47.156,12.65Z" style="fill:#fff;"></path><path d="M344.914,137.705c10.287-17.903,4.091-40.84-13.812-51.127-16.063-9.23-36.166-5.18-47.56,8.677l-11.498-1.76c-1.964-.3-3.27,1.972-2.021,3.517l7.311,9.049c-6.232,16.822,.392,36.227,16.454,45.456,17.903,10.287,40.84,4.091,51.127-13.813Zm-49.67,11.276c-7.894-4.536-13.304-11.744-15.783-19.834l-.937-3.839c-1.44-7.772-.247-16.078,3.993-23.458,9.482-16.501,30.622-22.213,47.124-12.731,7.38,4.24,12.592,10.816,15.262,18.256l1.123,3.788c1.932,8.237,.888,17.189-3.648,25.083-9.485,16.508-30.626,22.219-47.134,12.734Z" style="fill:#455a64;"></path></g><g id="freepik--Icon--inject-18"><g><g><g><path d="M302.652,92.047c-.201-.095-.362-.257-.55-.377-.153-.099-.333-.171-.515-.153s-.36,.147-.39,.327c-.013,.077,0,.155,.015,.232l.083,.463c.025,.141,.05,.287,.016,.426-.048,.195-.202,.342-.323,.502s-.214,.378-.122,.557c.059,.115,.185,.184,.312,.205,.324,.052,.619-.166,.906-.324,.301-.165,.632-.273,.973-.317,.04-.005,.083-.01,.115-.035,.051-.039,.057-.112,.059-.176,.01-.314,.122-.805,.036-1.105-.09-.312-.333-.09-.615-.224Z" style="fill:#e0e0e0;"></path><path d="M302.652,92.047c-.201-.095-.362-.257-.55-.377-.153-.099-.333-.171-.515-.153s-.36,.147-.39,.327c-.013,.077,0,.155,.015,.232l.083,.463c.025,.141,.05,.287,.016,.426-.048,.195-.202,.342-.323,.502s-.214,.378-.122,.557c.059,.115,.185,.184,.312,.205,.324,.052,.619-.166,.906-.324,.301-.165,.632-.273,.973-.317,.04-.005,.083-.01,.115-.035,.051-.039,.057-.112,.059-.176,.01-.314,.122-.805,.036-1.105-.09-.312-.333-.09-.615-.224Z" style="opacity:.2;"></path><path d="M301.276,94.36c-.038,0-.078-.003-.117-.009-.18-.028-.331-.129-.404-.271-.099-.193-.051-.444,.134-.689,.029-.039,.06-.076,.091-.114,.093-.113,.181-.22,.211-.342,.028-.115,.004-.247-.019-.375l-.083-.462c-.015-.083-.031-.176-.015-.275,.038-.225,.248-.406,.501-.431,.189-.02,.388,.04,.595,.172,.076,.048,.147,.103,.219,.158,.105,.082,.206,.159,.317,.211,.084,.04,.165,.037,.256,.034,.138-.008,.345-.013,.426,.268,.065,.229,.03,.542,0,.816-.014,.119-.027,.231-.03,.327-.002,.062-.006,.19-.105,.27-.062,.047-.129,.056-.179,.062-.325,.042-.638,.144-.927,.303-.046,.025-.092,.052-.138,.079-.219,.127-.463,.269-.731,.269Zm.369-2.722c-.015,0-.03,0-.045,.002-.121,.012-.259,.099-.28,.224-.009,.056,.003,.124,.015,.189l.083,.462c.026,.146,.056,.311,.015,.478-.043,.177-.153,.312-.26,.441-.029,.035-.058,.07-.085,.106-.046,.061-.188,.272-.11,.424,.036,.069,.12,.123,.221,.138,.225,.041,.449-.093,.685-.229,.047-.028,.095-.055,.142-.081,.317-.174,.66-.286,1.018-.332,.018-.002,.047-.006,.055-.011,0-.001,.008-.018,.01-.081,.004-.102,.017-.222,.031-.347,.029-.252,.062-.538,.01-.719-.026-.091-.034-.092-.176-.087-.097,.002-.231,.008-.373-.059h0c-.136-.064-.251-.153-.362-.239-.066-.05-.132-.101-.201-.146-.141-.09-.271-.136-.39-.136Z" style="fill:#455a64;"></path><g><path d="M302.886,93.756c.063,.569,.335,1,1.137,1.005,.264,.002,.522-.073,.781-.127,.749-.155,1.535-.132,2.273,.067,.364,.098,.721,.239,1.096,.28,.375,.04,.789-.039,1.045-.316,.157-.171,.239-.397,.297-.622,.173-.666,.312-2.086-.223-2.647-.562-.59-1.847-.086-2.565-.067-1.268,.033-3.538-1.201-3.744,.839-.051,.51-.151,1.1-.097,1.588Z" style="fill:#e0e0e0;"></path><path d="M308.359,95.117c-.065,0-.132-.004-.2-.011-.275-.03-.541-.111-.797-.19-.105-.032-.212-.065-.317-.094-.721-.194-1.487-.217-2.216-.065l-.166,.036c-.203,.046-.413,.093-.631,.093h-.011c-.765-.005-1.177-.37-1.26-1.117h0c-.044-.397,.009-.846,.06-1.279,.014-.114,.026-.226,.038-.334,.049-.491,.213-.833,.501-1.046,.543-.401,1.384-.229,2.198-.065,.408,.083,.795,.16,1.116,.16h.049c.194-.005,.441-.05,.702-.096,.708-.125,1.509-.269,1.957,.201,.557,.585,.451,2.007,.253,2.766-.054,.207-.139,.471-.326,.675-.219,.237-.559,.367-.95,.367Zm-2.562-.708c.442,0,.885,.058,1.312,.173,.109,.029,.218,.062,.326,.096,.256,.079,.498,.153,.751,.18,.387,.045,.74-.061,.939-.277,.149-.162,.222-.389,.268-.568,.198-.759,.27-2.046-.192-2.53-.354-.374-1.088-.243-1.731-.128-.271,.048-.526,.094-.74,.1-.353,.009-.777-.075-1.221-.165-.762-.154-1.548-.312-2,.021-.228,.168-.359,.453-.401,.87-.011,.109-.024,.223-.038,.338-.049,.42-.1,.854-.06,1.223,.068,.614,.381,.89,1.014,.894h.009c.19,0,.378-.042,.576-.087l.17-.038c.335-.069,.677-.104,1.02-.104Z" style="fill:#455a64;"></path></g></g><g><path d="M301.961,96.74c-.214-.093-.388-.257-.587-.377-.164-.098-.354-.168-.544-.143s-.372,.166-.398,.355c-.011,.081,.006,.162,.023,.242,.034,.16,.068,.321,.102,.481,.031,.147,.062,.298,.031,.445-.044,.206-.2,.364-.321,.536s-.212,.403-.11,.587c.066,.118,.199,.187,.333,.204,.34,.043,.642-.194,.937-.369,.309-.183,.653-.307,1.007-.364,.042-.007,.086-.014,.119-.041,.052-.043,.056-.119,.056-.186,0-.329,.102-.847,.001-1.157-.105-.324-.352-.083-.651-.214Z" style="fill:#e0e0e0;"></path><path d="M301.961,96.74c-.214-.093-.388-.257-.587-.377-.164-.098-.354-.168-.544-.143s-.372,.166-.398,.355c-.011,.081,.006,.162,.023,.242,.034,.16,.068,.321,.102,.481,.031,.147,.062,.298,.031,.445-.044,.206-.2,.364-.321,.536s-.212,.403-.11,.587c.066,.118,.199,.187,.333,.204,.34,.043,.642-.194,.937-.369,.309-.183,.653-.307,1.007-.364,.042-.007,.086-.014,.119-.041,.052-.043,.056-.119,.056-.186,0-.329,.102-.847,.001-1.157-.105-.324-.352-.083-.651-.214Z" style="opacity:.2;"></path><path d="M300.573,99.201c-.032,0-.064-.002-.098-.006-.188-.024-.348-.124-.427-.267-.109-.198-.066-.459,.116-.719,.029-.042,.061-.082,.092-.123,.094-.122,.182-.237,.21-.368,.026-.123-.003-.26-.031-.393l-.103-.481c-.018-.085-.038-.181-.024-.284,.031-.234,.244-.428,.505-.463,.199-.029,.406,.027,.625,.16,.079,.047,.155,.102,.231,.156,.114,.083,.223,.161,.342,.212h0c.094,.041,.183,.036,.271,.028,.147-.012,.355-.024,.449,.262,.075,.236,.049,.561,.024,.847-.011,.126-.021,.247-.021,.349,0,.065,0,.2-.102,.283-.059,.048-.127,.06-.177,.067-.344,.056-.668,.173-.966,.349-.047,.028-.094,.058-.142,.087-.23,.144-.488,.305-.777,.305Zm.337-2.861c-.021,0-.043,.001-.063,.004-.129,.017-.272,.114-.29,.248-.008,.061,.007,.131,.021,.2l.103,.481c.032,.151,.068,.322,.031,.497-.039,.186-.149,.329-.256,.468-.029,.038-.059,.076-.085,.114-.047,.065-.191,.293-.103,.454,.04,.073,.132,.126,.239,.14,.238,.031,.47-.111,.712-.262,.049-.031,.098-.061,.146-.09,.324-.192,.679-.32,1.052-.38,.021-.003,.052-.008,.06-.014,.003-.004,.01-.023,.01-.089,0-.108,.011-.235,.021-.369,.021-.263,.047-.562-.014-.75-.032-.101-.053-.099-.193-.089-.106,.008-.239,.016-.389-.048h0c-.145-.062-.269-.152-.389-.239-.07-.05-.141-.101-.214-.146-.145-.086-.278-.13-.399-.13Z" style="fill:#455a64;"></path><g><path d="M302.263,98.52c.085,.593,.383,1.035,1.222,1.014,.277-.007,.544-.094,.813-.158,.779-.187,1.601-.189,2.381-.005,.385,.091,.762,.226,1.156,.256,.394,.03,.824-.067,1.083-.365,.159-.184,.237-.423,.291-.66,.159-.703,.257-2.193-.321-2.762-.607-.598-1.935-.029-2.686,.015-1.325,.077-3.742-1.139-3.889,1.002-.037,.535-.122,1.155-.049,1.664Z" style="fill:#e0e0e0;"></path><path d="M307.974,99.758c-.049,0-.098-.002-.148-.006-.288-.021-.567-.098-.837-.171-.112-.031-.225-.062-.338-.088-.761-.18-1.565-.179-2.323,.005-.059,.014-.116,.029-.174,.044-.214,.055-.435,.112-.665,.118-.81,.026-1.238-.348-1.35-1.122h0c-.06-.414-.02-.884,.02-1.338,.011-.12,.021-.238,.028-.352,.036-.514,.195-.875,.488-1.106,.551-.435,1.438-.285,2.293-.141,.453,.077,.88,.152,1.227,.128,.204-.012,.461-.066,.732-.123,.733-.155,1.565-.331,2.048,.145,.6,.591,.536,2.08,.355,2.879-.05,.219-.131,.498-.318,.714-.23,.267-.604,.414-1.038,.414Zm-2.475-.648c.406,0,.813,.047,1.208,.14,.116,.027,.231,.059,.348,.09,.27,.073,.524,.143,.79,.163,.197,.015,.688,.013,.978-.323,.151-.175,.221-.416,.264-.606,.143-.63,.261-2.106-.287-2.646-.388-.381-1.149-.22-1.82-.078-.281,.059-.547,.115-.771,.128-.372,.021-.813-.053-1.281-.132-.802-.136-1.632-.275-2.097,.09-.235,.185-.363,.488-.394,.928-.009,.115-.019,.234-.029,.356-.037,.44-.076,.896-.021,1.282h0c.092,.645,.44,.929,1.096,.907,.201-.005,.398-.056,.607-.11,.06-.015,.119-.031,.179-.045,.402-.097,.816-.145,1.23-.145Z" style="fill:#455a64;"></path></g></g><g><path d="M302.829,101.472c-.226-.091-.413-.256-.625-.376-.174-.098-.375-.165-.573-.133s-.384,.185-.405,.384c-.009,.085,.011,.169,.031,.252l.121,.5c.037,.152,.074,.31,.046,.464-.039,.216-.198,.387-.319,.57s-.209,.427-.097,.616c.072,.122,.214,.189,.355,.203,.357,.035,.665-.223,.969-.414,.317-.2,.673-.341,1.042-.411,.044-.008,.09-.017,.123-.046,.053-.046,.055-.126,.053-.197-.01-.344,.081-.888-.033-1.209-.119-.335-.37-.077-.687-.204Z" style="fill:#e0e0e0;"></path><path d="M302.829,101.472c-.226-.091-.413-.256-.625-.376-.174-.098-.375-.165-.573-.133s-.384,.185-.405,.384c-.009,.085,.011,.169,.031,.252l.121,.5c.037,.152,.074,.31,.046,.464-.039,.216-.198,.387-.319,.57s-.209,.427-.097,.616c.072,.122,.214,.189,.355,.203,.357,.035,.665-.223,.969-.414,.317-.2,.673-.341,1.042-.411,.044-.008,.09-.017,.123-.046,.053-.046,.055-.126,.053-.197-.01-.344,.081-.888-.033-1.209-.119-.335-.37-.077-.687-.204Z" style="opacity:.2;"></path><path d="M301.428,104.08c-.025,0-.051,0-.076-.003-.195-.019-.363-.118-.45-.264-.119-.201-.083-.474,.1-.749,.029-.043,.06-.086,.091-.129,.095-.131,.185-.256,.21-.395,.024-.131-.011-.274-.044-.412l-.121-.5c-.021-.083-.047-.188-.034-.296,.024-.241,.238-.449,.508-.493,.206-.033,.423,.017,.655,.148,.084,.047,.165,.102,.245,.156,.122,.083,.238,.162,.365,.213,.099,.039,.196,.029,.288,.021,.151-.015,.365-.037,.471,.256,.086,.243,.067,.583,.051,.884-.007,.132-.014,.257-.011,.364,.002,.066,.006,.206-.095,.294-.057,.05-.125,.063-.175,.074-.358,.068-.703,.204-1.007,.396-.049,.03-.098,.063-.146,.096-.241,.16-.513,.34-.824,.34Zm.305-3c-.027,0-.055,.002-.082,.006-.136,.022-.285,.13-.3,.273-.007,.065,.011,.139,.028,.21l.121,.5c.036,.148,.081,.333,.048,.516-.035,.194-.146,.348-.254,.496-.028,.04-.058,.08-.085,.121-.047,.071-.192,.315-.093,.483,.046,.077,.145,.131,.259,.143,.251,.027,.489-.131,.739-.296,.051-.034,.101-.067,.151-.099,.329-.208,.704-.355,1.085-.428,.024-.005,.056-.011,.064-.017,.002-.002,.012-.016,.01-.1-.003-.112,.004-.245,.012-.384,.015-.277,.032-.59-.038-.786-.038-.109-.061-.107-.21-.091-.113,.011-.25,.025-.406-.038h0c-.151-.061-.284-.151-.412-.238-.074-.051-.149-.102-.228-.146-.148-.083-.286-.125-.41-.125Z" style="fill:#455a64;"></path><g><path d="M303.198,103.324c.106,.618,.432,1.07,1.308,1.023,.289-.016,.566-.115,.845-.19,.808-.219,1.668-.246,2.488-.077,.405,.083,.803,.214,1.216,.233,.413,.019,.859-.095,1.121-.415,.161-.197,.235-.45,.284-.699,.145-.74,.202-2.3-.419-2.878-.653-.607-2.023,.028-2.807,.097-1.383,.12-3.946-1.078-4.035,1.165-.022,.56-.092,1.211,0,1.741Z" style="fill:#e0e0e0;"></path><path d="M304.381,104.475c-.746,0-1.175-.371-1.307-1.13h0c-.073-.427-.046-.915-.02-1.387,.007-.129,.014-.257,.019-.38,.021-.537,.177-.918,.475-1.167,.562-.47,1.489-.34,2.389-.215,.477,.066,.928,.128,1.286,.098,.214-.019,.48-.083,.764-.151,.761-.185,1.623-.392,2.139,.088,.643,.597,.622,2.153,.458,2.993-.046,.23-.121,.523-.311,.754-.242,.296-.649,.462-1.127,.462-.031,0-.063,0-.097-.002-.302-.014-.595-.085-.879-.154-.118-.028-.237-.057-.356-.082-.801-.166-1.642-.139-2.429,.075-.061,.016-.12,.034-.18,.051-.222,.064-.452,.131-.692,.144-.045,.002-.089,.003-.132,.003Zm-1.061-1.173c.117,.674,.484,.959,1.179,.919,.212-.011,.418-.071,.637-.134,.061-.018,.122-.035,.184-.052,.825-.224,1.704-.251,2.545-.079,.122,.025,.243,.055,.364,.084,.285,.069,.555,.134,.832,.146,.442,.024,.811-.114,1.019-.369,.154-.188,.219-.443,.258-.644,.13-.665,.208-2.215-.382-2.762-.42-.39-1.211-.197-1.91-.028-.292,.071-.568,.137-.801,.158-.385,.033-.852-.031-1.342-.099-.845-.117-1.717-.24-2.194,.159-.24,.202-.366,.524-.385,.986-.005,.125-.012,.253-.02,.385-.025,.458-.052,.932,.017,1.33h0Z" style="fill:#455a64;"></path></g></g><g><path d="M304.35,106.423c-.239-.088-.438-.256-.663-.375-.185-.097-.397-.162-.602-.123-.205,.039-.395,.204-.412,.412-.007,.089,.016,.177,.04,.262l.14,.519c.043,.158,.086,.322,.061,.484-.035,.227-.196,.409-.318,.604-.122,.194-.206,.452-.084,.646,.079,.125,.229,.192,.376,.202,.374,.026,.689-.251,1-.459,.326-.218,.693-.374,1.076-.458,.045-.01,.093-.02,.127-.052,.054-.05,.054-.134,.05-.207-.02-.359,.06-.929-.068-1.262-.134-.347-.389-.07-.723-.194Z" style="fill:#e0e0e0;"></path><path d="M304.35,106.423c-.239-.088-.438-.256-.663-.375-.185-.097-.397-.162-.602-.123-.205,.039-.395,.204-.412,.412-.007,.089,.016,.177,.04,.262l.14,.519c.043,.158,.086,.322,.061,.484-.035,.227-.196,.409-.318,.604-.122,.194-.206,.452-.084,.646,.079,.125,.229,.192,.376,.202,.374,.026,.689-.251,1-.459,.326-.218,.693-.374,1.076-.458,.045-.01,.093-.02,.127-.052,.054-.05,.054-.134,.05-.207-.02-.359,.06-.929-.068-1.262-.134-.347-.389-.07-.723-.194Z" style="opacity:.2;"></path><path d="M302.938,109.18c-.019,0-.038,0-.058-.002-.203-.014-.38-.111-.474-.26-.129-.204-.099-.488,.085-.779,.028-.046,.06-.091,.09-.136,.096-.141,.187-.273,.21-.42,.021-.139-.021-.294-.059-.432l-.141-.519c-.023-.086-.052-.193-.044-.305,.021-.252,.236-.473,.514-.525,.21-.038,.438,.006,.684,.135,.09,.048,.176,.103,.262,.158,.13,.083,.253,.161,.387,.211h0c.104,.039,.206,.027,.303,.015,.16-.021,.378-.048,.492,.251,.097,.25,.087,.606,.078,.919-.003,.138-.007,.27,0,.38,.004,.069,.011,.211-.09,.305-.059,.054-.129,.07-.181,.082-.375,.082-.723,.229-1.039,.44-.048,.032-.097,.067-.146,.101-.254,.179-.54,.381-.874,.381Zm.272-3.142c-.035,0-.068,.003-.102,.009-.144,.027-.299,.146-.311,.299-.006,.069,.016,.146,.035,.22l.142,.519c.041,.153,.093,.344,.062,.536-.031,.203-.142,.365-.249,.523-.029,.042-.059,.085-.086,.128-.048,.076-.194,.338-.084,.513,.051,.081,.157,.136,.279,.145,.271,.014,.513-.153,.77-.333,.051-.036,.101-.071,.151-.105,.342-.229,.719-.388,1.12-.476,.025-.006,.061-.014,.069-.022,.004-.004,.014-.026,.009-.108-.006-.117-.003-.255,0-.4,.009-.29,.018-.619-.061-.823-.045-.116-.069-.113-.229-.093-.114,.015-.257,.034-.421-.028h0c-.16-.059-.3-.148-.435-.235-.081-.051-.161-.103-.245-.146-.151-.08-.292-.121-.418-.121Z" style="fill:#455a64;"></path><g><path d="M304.786,108.346c.128,.642,.481,1.106,1.394,1.032,.301-.024,.587-.135,.877-.222,.838-.251,1.735-.303,2.596-.149,.425,.076,.844,.201,1.276,.209,.432,.008,.895-.123,1.159-.464,.162-.21,.233-.476,.277-.738,.131-.776,.148-2.407-.517-2.993-.698-.616-2.112,.086-2.928,.178-1.44,.164-4.149-1.016-4.18,1.328-.008,.586-.063,1.267,.047,1.818Z" style="fill:#e0e0e0;"></path><path d="M305.993,109.511c-.741,0-1.177-.375-1.33-1.141h0c-.089-.445-.073-.958-.059-1.453,.004-.133,.008-.264,.01-.391,.007-.559,.158-.961,.461-1.228,.57-.504,1.541-.395,2.483-.289,.499,.056,.969,.107,1.347,.066,.223-.025,.5-.1,.794-.18,.787-.213,1.68-.454,2.231,.031,.686,.605,.705,2.228,.557,3.108-.04,.24-.111,.547-.301,.792-.253,.328-.694,.513-1.215,.513h-.046c-.314-.006-.623-.072-.921-.136-.124-.027-.248-.053-.373-.076-.845-.151-1.72-.1-2.538,.146-.062,.019-.124,.039-.187,.058-.229,.073-.467,.149-.717,.169-.067,.005-.134,.008-.197,.008Zm.396-4.341c-.465,0-.874,.073-1.149,.316-.247,.218-.37,.559-.376,1.043-.002,.128-.006,.261-.01,.396-.015,.481-.029,.979,.054,1.396h0c.14,.703,.519,.991,1.262,.932,.221-.018,.435-.086,.661-.158,.062-.02,.126-.04,.189-.059,.857-.257,1.775-.309,2.653-.152,.128,.023,.256,.05,.383,.077,.3,.064,.582,.125,.873,.13,.46,.014,.846-.142,1.059-.416,.155-.201,.216-.47,.252-.681,.117-.698,.156-2.321-.477-2.879-.45-.396-1.272-.173-2.001,.023-.303,.082-.589,.159-.831,.186-.402,.047-.889-.009-1.402-.066-.388-.043-.78-.088-1.141-.088Z" style="fill:#455a64;"></path></g></g><g><path d="M305.615,111.701c-.251-.086-.464-.256-.701-.374-.195-.097-.418-.159-.631-.113-.213,.046-.407,.222-.419,.44-.005,.093,.021,.184,.048,.273l.16,.537c.049,.164,.098,.333,.076,.503-.031,.237-.194,.432-.316,.638-.122,.206-.204,.477-.071,.676,.085,.128,.243,.194,.397,.201,.39,.018,.712-.279,1.031-.504,.334-.236,.713-.408,1.111-.505,.047-.011,.097-.023,.132-.057,.055-.053,.053-.141,.047-.217-.03-.374,.038-.971-.103-1.314-.148-.358-.407-.063-.759-.184Z" style="fill:#e0e0e0;"></path><path d="M305.615,111.701c-.251-.086-.464-.256-.701-.374-.195-.097-.418-.159-.631-.113-.213,.046-.407,.222-.419,.44-.005,.093,.021,.184,.048,.273l.16,.537c.049,.164,.098,.333,.076,.503-.031,.237-.194,.432-.316,.638-.122,.206-.204,.477-.071,.676,.085,.128,.243,.194,.397,.201,.39,.018,.712-.279,1.031-.504,.334-.236,.713-.408,1.111-.505,.047-.011,.097-.023,.132-.057,.055-.053,.053-.141,.047-.217-.03-.374,.038-.971-.103-1.314-.148-.358-.407-.063-.759-.184Z" style="opacity:.2;"></path><path d="M304.19,114.607h-.039c-.21-.011-.395-.107-.495-.259-.139-.208-.113-.502,.068-.809,.029-.048,.06-.097,.091-.145,.097-.149,.188-.29,.208-.444,.02-.147-.028-.309-.071-.452l-.16-.537c-.026-.089-.059-.199-.053-.315,.016-.261,.233-.495,.518-.556,.218-.046,.456-.004,.713,.124,.095,.047,.187,.103,.277,.158,.138,.083,.268,.162,.408,.21,.114,.04,.22,.023,.321,.008,.163-.024,.389-.059,.513,.247,.107,.257,.106,.628,.105,.956,0,.144-.002,.28,.008,.396,.006,.077,.017,.219-.084,.316-.059,.057-.132,.075-.185,.088-.389,.095-.749,.258-1.073,.487-.052,.036-.103,.074-.154,.112-.264,.195-.562,.416-.916,.416Zm.239-3.284c-.04,0-.081,.004-.12,.012-.174,.038-.312,.177-.32,.325-.004,.073,.02,.153,.043,.23l.16,.537c.047,.159,.105,.356,.079,.556-.027,.21-.139,.382-.246,.548-.029,.046-.059,.091-.086,.137-.048,.081-.196,.36-.075,.542,.057,.084,.171,.14,.299,.146h.028c.271,0,.512-.177,.767-.366,.053-.039,.105-.078,.158-.115,.351-.247,.739-.423,1.154-.524,.029-.007,.064-.016,.074-.026,.011-.01,.014-.049,.008-.117-.009-.121-.009-.265-.008-.416,0-.304,.002-.648-.086-.86-.05-.123-.082-.118-.246-.095-.117,.018-.267,.041-.438-.019h0c-.167-.057-.314-.146-.457-.233-.086-.052-.171-.104-.26-.148-.113-.056-.27-.115-.429-.115Z" style="fill:#455a64;"></path><g><path d="M306.119,113.695c.15,.666,.529,1.141,1.48,1.041,.314-.033,.609-.156,.909-.254,.867-.283,1.801-.36,2.703-.222,.445,.068,.886,.188,1.336,.186,.45-.002,.93-.15,1.197-.513,.164-.223,.231-.502,.27-.776,.117-.813,.093-2.514-.615-3.108-.744-.624-2.2,.143-3.049,.26-1.498,.207-4.353-.954-4.326,1.491,.007,.611-.033,1.323,.095,1.895Z" style="fill:#e0e0e0;"></path><path d="M307.353,114.875c-.737,0-1.182-.379-1.355-1.152-.104-.462-.102-.997-.099-1.515,0-.138,.002-.274,0-.406-.007-.582,.14-1.003,.448-1.288,.582-.54,1.598-.448,2.578-.363,.521,.046,1.015,.09,1.407,.035,.232-.032,.521-.117,.824-.207,.816-.242,1.739-.513,2.322-.025,.73,.613,.792,2.301,.659,3.222-.036,.25-.102,.571-.294,.833-.262,.356-.734,.562-1.296,.564h-.012c-.324,0-.644-.06-.952-.118-.131-.024-.261-.049-.392-.069-.884-.136-1.797-.061-2.646,.217-.065,.021-.13,.043-.194,.066-.236,.082-.48,.166-.741,.193-.09,.009-.176,.014-.259,.014Zm.479-4.539c-.535,0-1.011,.079-1.315,.361-.254,.235-.374,.595-.368,1.102,.002,.133,0,.27,0,.41-.003,.503-.005,1.024,.093,1.458h0c.164,.733,.572,1.025,1.345,.944,.231-.024,.452-.1,.686-.181,.065-.023,.132-.045,.197-.067,.887-.289,1.841-.367,2.761-.227,.134,.021,.268,.045,.4,.071,.314,.059,.615,.114,.916,.114,.482-.002,.882-.17,1.097-.462,.159-.217,.216-.499,.247-.72,.105-.732,.104-2.427-.571-2.995-.483-.403-1.337-.15-2.091,.073-.313,.093-.609,.181-.86,.215-.424,.058-.929,.014-1.464-.034-.362-.032-.729-.064-1.071-.064Z" style="fill:#455a64;"></path></g></g><g><path d="M305.718,117.435c-.264-.084-.489-.256-.739-.374-.205-.096-.439-.156-.659-.103-.221,.053-.419,.241-.427,.468-.003,.097,.027,.191,.056,.283,.06,.185,.119,.371,.179,.556,.055,.169,.11,.345,.091,.522-.027,.248-.192,.455-.315,.672-.122,.217-.201,.501-.059,.706,.092,.132,.258,.197,.418,.2,.407,.01,.735-.307,1.062-.549,.343-.253,.734-.441,1.145-.552,.049-.013,.1-.026,.136-.062,.056-.057,.052-.148,.043-.227-.039-.389,.018-1.012-.138-1.366-.163-.37-.426-.056-.795-.173Z" style="fill:#e0e0e0;"></path><path d="M305.718,117.435c-.264-.084-.489-.256-.739-.374-.205-.096-.439-.156-.659-.103-.221,.053-.419,.241-.427,.468-.003,.097,.027,.191,.056,.283,.06,.185,.119,.371,.179,.556,.055,.169,.11,.345,.091,.522-.027,.248-.192,.455-.315,.672-.122,.217-.201,.501-.059,.706,.092,.132,.258,.197,.418,.2,.407,.01,.735-.307,1.062-.549,.343-.253,.734-.441,1.145-.552,.049-.013,.1-.026,.136-.062,.056-.057,.052-.148,.043-.227-.039-.389,.018-1.012-.138-1.366-.163-.37-.426-.056-.795-.173Z" style="opacity:.2;"></path><path d="M304.282,120.49h-.021c-.218-.005-.411-.101-.519-.254-.147-.212-.128-.518,.052-.838,.029-.051,.061-.102,.092-.153,.099-.158,.19-.308,.209-.471,.016-.15-.036-.313-.086-.471l-.18-.556c-.031-.098-.066-.208-.062-.326,.009-.304,.27-.524,.521-.584,.223-.053,.473-.016,.742,.111,.1,.047,.194,.102,.29,.156,.146,.084,.284,.164,.435,.211h0c.119,.038,.229,.019,.336,0,.167-.029,.397-.069,.535,.242,.116,.265,.124,.651,.13,.992,.003,.15,.006,.292,.018,.412,.008,.071,.025,.222-.078,.327-.059,.061-.137,.082-.193,.096-.393,.105-.774,.289-1.103,.531-.053,.039-.105,.08-.158,.121-.287,.223-.584,.453-.96,.453Zm.209-3.427c-.05,0-.098,.006-.144,.017-.158,.038-.325,.179-.33,.35-.003,.075,.022,.155,.049,.239l.181,.558c.055,.174,.117,.37,.096,.573-.024,.22-.136,.401-.244,.576-.029,.048-.06,.096-.087,.145-.048,.086-.196,.382-.064,.573,.061,.087,.184,.144,.319,.147h.016c.29,0,.541-.195,.807-.401,.055-.042,.109-.084,.163-.124,.358-.265,.758-.457,1.188-.572,.029-.008,.067-.018,.078-.029,.01-.009,.019-.039,.009-.125-.013-.127-.016-.276-.019-.434-.007-.317-.014-.676-.109-.896-.058-.131-.097-.125-.265-.096-.123,.022-.275,.047-.454-.009-.176-.056-.332-.146-.483-.233-.089-.051-.179-.103-.271-.146-.157-.074-.302-.111-.434-.111Z" style="fill:#455a64;"></path><g><path d="M306.288,119.501c.172,.69,.578,1.176,1.566,1.05,.326-.042,.631-.177,.941-.285,.897-.315,1.868-.417,2.81-.294,.465,.061,.927,.175,1.396,.163s.965-.178,1.234-.562c.166-.236,.229-.528,.263-.815,.103-.849,.038-2.621-.713-3.223-.79-.633-2.288,.2-3.17,.342-1.556,.251-4.557-.893-4.471,1.654,.021,.636-.004,1.379,.143,1.971Z" style="fill:#e0e0e0;"></path><path d="M307.554,120.696c-.737,0-1.192-.383-1.387-1.165-.119-.478-.129-1.034-.138-1.572-.003-.145-.005-.288-.01-.425-.021-.604,.122-1.045,.436-1.349,.591-.573,1.653-.504,2.673-.437,.547,.036,1.061,.07,1.469,.003,.241-.039,.539-.134,.854-.235,.843-.27,1.796-.575,2.413-.081,.772,.619,.876,2.375,.76,3.336-.032,.263-.094,.6-.285,.872-.264,.375-.75,.6-1.334,.616-.331,.005-.677-.046-1.003-.1-.138-.023-.274-.045-.413-.063-.924-.122-1.875-.021-2.753,.288-.066,.023-.132,.048-.198,.072-.245,.091-.498,.185-.768,.219-.11,.014-.216,.021-.316,.021Zm.58-4.741c-.615,0-1.167,.083-1.505,.41-.26,.251-.377,.631-.359,1.161,.005,.139,.007,.283,.01,.429,.009,.524,.019,1.066,.13,1.516h0c.19,.762,.627,1.061,1.43,.956,.241-.031,.47-.116,.712-.206,.067-.025,.135-.05,.203-.074,.915-.322,1.904-.426,2.868-.3,.141,.019,.28,.042,.421,.064,.327,.054,.627,.101,.956,.097,.504-.014,.918-.199,1.135-.509,.16-.227,.214-.524,.242-.758,.093-.766,.051-2.534-.668-3.11-.513-.412-1.399-.126-2.181,.124-.324,.104-.631,.202-.892,.244-.437,.07-.965,.036-1.523,0-.329-.021-.662-.043-.979-.043Z" style="fill:#455a64;"></path></g></g><g><path d="M304.341,123.511c-.27-.099-.497-.288-.752-.422-.209-.109-.449-.182-.681-.137-.232,.045-.446,.232-.465,.467-.008,.1,.019,.2,.046,.297,.054,.195,.107,.391,.161,.586,.049,.179,.099,.364,.071,.547-.039,.257-.22,.464-.357,.684-.137,.22-.232,.512-.093,.731,.089,.141,.259,.216,.426,.227,.423,.029,.778-.286,1.129-.523,.368-.248,.783-.426,1.216-.522,.051-.011,.106-.023,.144-.059,.061-.057,.06-.151,.055-.234-.023-.406,.064-1.051-.082-1.427-.152-.392-.44-.077-.819-.216Z" style="fill:#e0e0e0;"></path><path d="M304.341,123.511c-.27-.099-.497-.288-.752-.422-.209-.109-.449-.182-.681-.137-.232,.045-.446,.232-.465,.467-.008,.1,.019,.2,.046,.297,.054,.195,.107,.391,.161,.586,.049,.179,.099,.364,.071,.547-.039,.257-.22,.464-.357,.684-.137,.22-.232,.512-.093,.731,.089,.141,.259,.216,.426,.227,.423,.029,.778-.286,1.129-.523,.368-.248,.783-.426,1.216-.522,.051-.011,.106-.023,.144-.059,.061-.057,.06-.151,.055-.234-.023-.406,.064-1.051-.082-1.427-.152-.392-.44-.077-.819-.216Z" style="opacity:.2;"></path><path d="M302.753,126.619c-.021,0-.042,0-.063-.002-.224-.016-.42-.122-.523-.285-.143-.225-.109-.54,.092-.864,.033-.053,.068-.105,.104-.157,.108-.161,.211-.312,.236-.48,.024-.159-.022-.33-.067-.495l-.161-.586c-.028-.103-.06-.218-.051-.339,.022-.277,.26-.521,.566-.581,.23-.046,.489,.006,.762,.149,.102,.053,.198,.115,.296,.176,.147,.094,.288,.183,.441,.239h0c.125,.046,.24,.03,.352,.016,.176-.021,.414-.053,.54,.272,.109,.28,.101,.682,.092,1.035-.004,.156-.008,.305,0,.43,.004,.075,.014,.231-.096,.333-.06,.057-.137,.075-.193,.088-.424,.094-.829,.268-1.181,.505-.057,.038-.112,.078-.169,.118-.299,.211-.606,.429-.976,.429Zm.299-3.555c-.041,0-.081,.003-.12,.011-.165,.032-.349,.167-.363,.355-.007,.078,.017,.163,.041,.252l.161,.587c.05,.181,.106,.387,.075,.598-.034,.225-.158,.407-.277,.583-.033,.049-.066,.099-.098,.148-.055,.088-.224,.393-.094,.598,.062,.096,.185,.16,.33,.17,.307,.021,.597-.184,.877-.382,.058-.041,.115-.082,.173-.121,.378-.255,.813-.441,1.259-.541,.036-.008,.073-.017,.085-.028,.023-.022,.019-.107,.017-.136-.008-.131-.004-.287,0-.45,.008-.33,.017-.705-.074-.938-.057-.144-.104-.138-.275-.115-.129,.016-.29,.037-.47-.029h0c-.179-.065-.337-.166-.49-.263-.091-.058-.182-.116-.276-.166-.174-.091-.334-.136-.479-.136Z" style="fill:#455a64;"></path><g><path d="M304.842,125.685c.148,.726,.548,1.249,1.581,1.162,.341-.029,.664-.155,.991-.255,.947-.287,1.961-.349,2.935-.179,.481,.084,.956,.224,1.444,.232,.488,.008,1.011-.142,1.309-.529,.183-.238,.262-.539,.31-.836,.145-.878,.158-2.723-.597-3.383-.792-.693-2.388,.105-3.311,.213-1.629,.191-4.697-1.133-4.723,1.519-.006,.663-.066,1.434,.061,2.056Z" style="fill:#e0e0e0;"></path><path d="M306.204,126.981c-.824,0-1.312-.418-1.484-1.272h0c-.103-.502-.088-1.083-.072-1.645,.004-.149,.008-.295,.009-.437,.006-.627,.173-1.078,.512-1.378,.639-.567,1.736-.447,2.795-.333,.565,.062,1.101,.118,1.526,.07,.254-.03,.567-.116,.9-.207,.886-.243,1.891-.517,2.508,.023,.773,.676,.803,2.504,.639,3.498-.045,.271-.125,.618-.334,.892-.284,.369-.782,.579-1.37,.579h-.04c-.355-.006-.703-.08-1.04-.15-.142-.03-.282-.059-.424-.084-.954-.167-1.95-.107-2.878,.176-.07,.021-.141,.044-.21,.066-.259,.083-.525,.169-.807,.193-.079,.007-.155,.01-.229,.01Zm.456-4.912c-.535,0-1.01,.084-1.326,.366-.282,.251-.423,.642-.428,1.194-.002,.143-.006,.291-.01,.441-.014,.547-.029,1.114,.067,1.588h0c.164,.805,.608,1.133,1.448,1.062,.253-.021,.495-.099,.751-.182,.071-.023,.144-.046,.215-.068,.965-.293,2.001-.355,2.993-.183,.145,.025,.288,.055,.432,.085,.325,.068,.662,.139,.993,.145h.036c.51,0,.936-.174,1.172-.48,.175-.229,.242-.523,.286-.78,.13-.793,.166-2.636-.557-3.268-.516-.452-1.451-.196-2.278,.03-.342,.093-.664,.182-.937,.213-.454,.055-1.003-.005-1.583-.069-.433-.047-.871-.095-1.275-.095Z" style="fill:#455a64;"></path></g></g></g><g><path d="M302.671,129.081c-.702,.441-1.108,1.06-.96,1.87,.092,.506,.381,1.035,.162,1.5-.274,.583-1.134,.608-1.547,1.103-.598,.715,.055,1.939-.504,2.685-.195,.261-.505,.409-.729,.645-.643,.678-.361,1.819,.194,2.57,.555,.752,1.34,1.341,1.745,2.183,.222,.46,.317,.97,.482,1.454,.388,1.134,1.182,2.124,2.205,2.748,.147,.09-.383-1.765-.409-1.854-.195-.655-.321-1.34-.384-2.029-.214-2.348,.295-5.123,2.124-6.77,1.199-1.079,7.105-3.286,4.83-5.938-1.067-1.243-5.27-1.384-7.21-.167Z" style="fill:#e0e0e0;"></path><path d="M303.743,145.991l-.089-.046c-1.04-.634-1.863-1.659-2.258-2.813-.061-.175-.111-.354-.162-.533-.091-.32-.177-.622-.314-.908-.242-.502-.619-.907-1.02-1.335-.244-.262-.497-.533-.714-.827-.604-.816-.86-2.017-.184-2.731,.104-.11,.224-.201,.339-.288,.145-.109,.281-.212,.38-.346,.249-.332,.231-.779,.214-1.252-.02-.51-.04-1.039,.295-1.438,.203-.244,.495-.378,.776-.509,.319-.147,.621-.287,.753-.567,.138-.293,.041-.63-.062-.986-.041-.143-.083-.291-.11-.438-.146-.798,.205-1.489,1.017-1.998h0c1.97-1.236,6.24-1.126,7.371,.191,.438,.512,.615,1.046,.523,1.59-.246,1.455-2.367,2.69-3.916,3.591-.63,.367-1.175,.684-1.448,.931-1.559,1.402-2.337,3.894-2.084,6.666,.063,.699,.191,1.373,.38,2.004,.551,1.859,.436,1.947,.381,1.99l-.068,.053Zm-1.006-16.804h0c-.728,.457-1.031,1.042-.903,1.741,.024,.135,.065,.276,.104,.414,.111,.386,.226,.784,.048,1.162-.171,.362-.528,.528-.874,.688-.269,.125-.522,.242-.69,.442-.272,.327-.255,.784-.236,1.269,.019,.496,.038,1.008-.264,1.411-.12,.162-.277,.281-.429,.396-.112,.085-.219,.166-.309,.261-.582,.615-.338,1.678,.203,2.411,.208,.282,.456,.548,.695,.805,.396,.423,.804,.861,1.062,1.397,.147,.305,.24,.632,.33,.948,.05,.174,.1,.349,.158,.52,.353,1.03,1.062,1.952,1.965,2.561-.076-.406-.32-1.299-.407-1.592-.192-.647-.323-1.338-.388-2.053-.261-2.849,.548-5.419,2.164-6.874,.293-.264,.849-.587,1.491-.961,1.506-.877,3.568-2.078,3.794-3.417,.08-.474-.072-.927-.466-1.386-1.048-1.221-5.197-1.304-7.049-.143Z" style="fill:#455a64;"></path></g><path d="M301.155,114.284c-.397-3.233-1.388-6.346-2.294-9.462-.52-1.788-1.022-3.588-1.391-5.414-.179-.884-.302-1.772-.411-2.667-.125-1.029-.266-2.082-.233-3.119,.004-.139-.195-.3-.217-.096-.088,.822-.196,1.627-.191,2.455,.005,.821,.089,1.635,.204,2.448,.233,1.658,.609,3.286,1.049,4.899,.873,3.204,1.945,6.368,2.502,9.649,.573,3.368,.4,6.683-.843,9.885-1.298,3.344-3.758,5.94-5.147,9.819-.673,1.879-1.037,3.858-1.255,5.842-.188,1.715-.163,3.696,.058,5.487h.621c-.04-1.57-.124-3.248,.029-4.748,.191-1.865,.564-3.704,1.094-5.502,1.014-3.444,3.637-6.501,5.039-9.781,.671-1.571,1.184-3.197,1.408-4.894,.211-1.593,.173-3.209-.023-4.802Z" style="fill:#455a64;"></path><path d="M328.89,117.319c-.137-.464-.266-.931-.375-1.403-.566-2.446-1.015-4.919-1.346-7.407-.088-.666-.168-1.334-.24-2.003-.039-.365-.076-.729-.109-1.095-.036-.396-.163-.904-.092-1.298,.062-.347,.465-.414,.743-.543,.247-.114,.487-.243,.723-.379,.508-.296,.974-.649,1.412-1.041,1.796-1.606,3.269-4.312,2.827-6.784-.029-.164-.377-.368-.423-.113-.212,1.166-.39,2.297-.897,3.383-.498,1.065-1.184,2.029-2.049,2.827-.425,.392-.898,.736-1.396,1.028-.497,.292-1.164,.442-1.579,.848-.439,.43-.323,1.017-.275,1.573,.066,.768,.141,1.535,.228,2.3,.339,2.976,.847,5.932,1.522,8.851,.763,3.3,1.543,6.634,1.642,10.035,.05,1.713-.08,3.434-.456,5.108-.351,1.563-.917,2.904-1.503,4.402,0,.413-.221,.696-.139,1.147,.073,.401,.25,.775,.398,1.154,3.373-6.505,3.431-13.69,1.385-20.59Z" style="fill:#455a64;"></path><path d="M327.994,142.208c.141,.737,.274,1.475,.405,2.213,.021,.119,.045,.237,.067,.355h.861c-.02-.116-.036-.233-.057-.35-.132-.735-.267-1.47-.41-2.204-.284-1.46-.598-2.914-.96-4.357-.737-2.933-1.633-5.805-2.984-8.514-.106-.212-.362-.122-.297,.111,.78,2.8,1.714,5.557,2.423,8.379,.363,1.445,.674,2.902,.954,4.366Z" style="fill:#455a64;"></path></g><g><circle cx="302.299" cy="120.802" r="5.235" style="fill:#407BFF; opacity:.2;"></circle><circle cx="302.299" cy="120.802" r="2.825" style="fill:#407BFF; opacity:.2;"></circle><circle cx="302.299" cy="120.802" r="8.042" style="fill:#407BFF; opacity:.2;"></circle><circle cx="302.299" cy="120.802" r="11.02" style="fill:#407BFF; opacity:.2;"></circle></g></g></g></g></svg>
